<mxfile host="app.diagrams.net" modified="2024-05-09T08:13:09.310Z" agent="Mozilla/5.0 (Windows NT 10.0; Win64; x64) AppleWebKit/537.36 (KHTML, like Gecko) Chrome/124.0.0.0 Safari/537.36 Edg/124.0.0.0" etag="AAWqmiu7-H8PIh6gpnMa" version="23.0.1" type="device">
  <diagram name="Sida-1" id="VzATbEciwXu34aYBLQ-O">
    <mxGraphModel dx="1063" dy="694" grid="1" gridSize="10" guides="1" tooltips="1" connect="1" arrows="1" fold="1" page="1" pageScale="1" pageWidth="827" pageHeight="1169" math="0" shadow="0">
      <root>
        <mxCell id="0" />
        <mxCell id="1" parent="0" />
        <mxCell id="C7WN4osDV7OSCckUP1fg-30" style="edgeStyle=orthogonalEdgeStyle;rounded=0;orthogonalLoop=1;jettySize=auto;html=1;entryX=0;entryY=0.5;entryDx=0;entryDy=0;" parent="1" source="C7WN4osDV7OSCckUP1fg-22" target="C7WN4osDV7OSCckUP1fg-25" edge="1">
          <mxGeometry relative="1" as="geometry" />
        </mxCell>
        <mxCell id="C7WN4osDV7OSCckUP1fg-22" value="&lt;h3&gt;Collection&lt;/h3&gt;&lt;div&gt;Recordings of bat echolocation from multiple sources totaling ~75GB of audio files.&lt;/div&gt;" style="rounded=1;whiteSpace=wrap;html=1;" parent="1" vertex="1">
          <mxGeometry width="200" height="100" as="geometry" />
        </mxCell>
        <mxCell id="C7WN4osDV7OSCckUP1fg-31" style="edgeStyle=orthogonalEdgeStyle;rounded=0;orthogonalLoop=1;jettySize=auto;html=1;" parent="1" source="C7WN4osDV7OSCckUP1fg-25" target="C7WN4osDV7OSCckUP1fg-26" edge="1">
          <mxGeometry relative="1" as="geometry" />
        </mxCell>
        <mxCell id="C7WN4osDV7OSCckUP1fg-25" value="&lt;h3&gt;Unification&lt;/h3&gt;&lt;div&gt;Data from different sources was merged and the data distribution between classes was unified.&lt;/div&gt;" style="rounded=1;whiteSpace=wrap;html=1;" parent="1" vertex="1">
          <mxGeometry x="260" width="200" height="100" as="geometry" />
        </mxCell>
        <mxCell id="C7WN4osDV7OSCckUP1fg-32" style="edgeStyle=orthogonalEdgeStyle;rounded=0;orthogonalLoop=1;jettySize=auto;html=1;entryX=0.5;entryY=0;entryDx=0;entryDy=0;exitX=0.5;exitY=1;exitDx=0;exitDy=0;" parent="1" source="C7WN4osDV7OSCckUP1fg-26" target="C7WN4osDV7OSCckUP1fg-27" edge="1">
          <mxGeometry relative="1" as="geometry">
            <Array as="points">
              <mxPoint x="618" y="140" />
              <mxPoint x="90" y="140" />
            </Array>
          </mxGeometry>
        </mxCell>
        <mxCell id="C7WN4osDV7OSCckUP1fg-26" value="&lt;h3&gt;Resampling&lt;/h3&gt;&lt;div&gt;Audio files were resampled to the target sampling rate of 300,000Hz.&lt;/div&gt;" style="rounded=1;whiteSpace=wrap;html=1;" parent="1" vertex="1">
          <mxGeometry x="520" width="196" height="100" as="geometry" />
        </mxCell>
        <mxCell id="C7WN4osDV7OSCckUP1fg-33" value="" style="edgeStyle=orthogonalEdgeStyle;rounded=0;orthogonalLoop=1;jettySize=auto;html=1;" parent="1" source="C7WN4osDV7OSCckUP1fg-27" target="C7WN4osDV7OSCckUP1fg-28" edge="1">
          <mxGeometry relative="1" as="geometry" />
        </mxCell>
        <mxCell id="C7WN4osDV7OSCckUP1fg-27" value="&lt;h3&gt;Reshaping and splitting&lt;/h3&gt;&lt;div&gt;Length of clips were split into 1 second clips by cutting or padding with silence.&lt;/div&gt;" style="rounded=1;whiteSpace=wrap;html=1;" parent="1" vertex="1">
          <mxGeometry y="160" width="200" height="100" as="geometry" />
        </mxCell>
        <mxCell id="C7WN4osDV7OSCckUP1fg-34" style="edgeStyle=orthogonalEdgeStyle;rounded=0;orthogonalLoop=1;jettySize=auto;html=1;entryX=0;entryY=0.5;entryDx=0;entryDy=0;" parent="1" source="C7WN4osDV7OSCckUP1fg-28" edge="1">
          <mxGeometry relative="1" as="geometry">
            <mxPoint x="585" y="210" as="targetPoint" />
          </mxGeometry>
        </mxCell>
        <mxCell id="C7WN4osDV7OSCckUP1fg-28" value="&lt;h3&gt;Filter noise&lt;/h3&gt;&lt;div&gt;Band pass filters were applied to filter out noise in the clips.&lt;/div&gt;" style="rounded=1;whiteSpace=wrap;html=1;" parent="1" vertex="1">
          <mxGeometry x="260" y="160" width="200" height="100" as="geometry" />
        </mxCell>
        <mxCell id="C7WN4osDV7OSCckUP1fg-44" style="edgeStyle=orthogonalEdgeStyle;rounded=0;orthogonalLoop=1;jettySize=auto;html=1;" parent="1" source="C7WN4osDV7OSCckUP1fg-35" target="C7WN4osDV7OSCckUP1fg-36" edge="1">
          <mxGeometry relative="1" as="geometry">
            <Array as="points">
              <mxPoint x="623" y="300" />
              <mxPoint x="78" y="300" />
            </Array>
          </mxGeometry>
        </mxCell>
        <mxCell id="C7WN4osDV7OSCckUP1fg-35" value="&lt;h3&gt;Silence?&lt;/h3&gt;&lt;div&gt;Clips wich only contained silence were filtered out by looking at overall volume in the clips.&lt;/div&gt;" style="rounded=1;whiteSpace=wrap;html=1;" parent="1" vertex="1">
          <mxGeometry x="520" y="160" width="196" height="100" as="geometry" />
        </mxCell>
        <mxCell id="C7WN4osDV7OSCckUP1fg-41" value="" style="edgeStyle=orthogonalEdgeStyle;rounded=0;orthogonalLoop=1;jettySize=auto;html=1;" parent="1" source="C7WN4osDV7OSCckUP1fg-36" target="C7WN4osDV7OSCckUP1fg-39" edge="1">
          <mxGeometry relative="1" as="geometry" />
        </mxCell>
        <mxCell id="C7WN4osDV7OSCckUP1fg-36" value="&lt;h1&gt;Processed data&lt;/h1&gt;" style="rounded=1;whiteSpace=wrap;html=1;" parent="1" vertex="1">
          <mxGeometry y="320" width="156" height="100" as="geometry" />
        </mxCell>
        <mxCell id="C7WN4osDV7OSCckUP1fg-42" value="" style="edgeStyle=orthogonalEdgeStyle;rounded=0;orthogonalLoop=1;jettySize=auto;html=1;" parent="1" source="C7WN4osDV7OSCckUP1fg-39" target="C7WN4osDV7OSCckUP1fg-40" edge="1">
          <mxGeometry relative="1" as="geometry" />
        </mxCell>
        <mxCell id="C7WN4osDV7OSCckUP1fg-39" value="&lt;h3&gt;Spectrogram and augmentation&lt;/h3&gt;&lt;div&gt;Processed data is transoformed to spectrograms on its way to the model. Before reaching the model the spectrograms are augmented by adding blank sections.&lt;/div&gt;" style="rounded=1;whiteSpace=wrap;html=1;" parent="1" vertex="1">
          <mxGeometry x="200" y="320" width="319" height="100" as="geometry" />
        </mxCell>
        <mxCell id="C7WN4osDV7OSCckUP1fg-40" value="&lt;h1&gt;Model&lt;/h1&gt;" style="rounded=1;whiteSpace=wrap;html=1;" parent="1" vertex="1">
          <mxGeometry x="560" y="320" width="156" height="100" as="geometry" />
        </mxCell>
      </root>
    </mxGraphModel>
  </diagram>
</mxfile>
